<svg width="48" height="48" viewBox="0 0 48 48" fill="none" xmlns="http://www.w3.org/2000/svg">
<rect x="0.5" y="0.5" width="47" height="47" rx="6.5" fill="#273757" stroke="#273757"/>
<path d="M35.7021 14.939C35.8918 15.3966 35.8137 15.7872 35.4677 16.1109L27.2144 24.3643V36.7861C27.2144 37.2549 26.9967 37.5841 26.5615 37.7739C26.4164 37.8297 26.2769 37.8576 26.1429 37.8576C25.8416 37.8576 25.5905 37.7515 25.3896 37.5395L21.1039 33.2538C20.8918 33.0417 20.7858 32.7906 20.7858 32.5004V24.3643L12.5324 16.1109C12.1865 15.7872 12.1083 15.3966 12.2981 14.939C12.4878 14.5038 12.817 14.2861 13.2858 14.2861H34.7144C35.1831 14.2861 35.5123 14.5038 35.7021 14.939Z" fill="white"/>
</svg>
