<svg width="30" height="30" viewBox="0 0 30 30" fill="none" xmlns="http://www.w3.org/2000/svg">
<g clip-path="url(#clip0_5_29)">
<path d="M8.75 7.5C9.08152 7.5 9.39946 7.3683 9.63388 7.13388C9.8683 6.89946 10 6.58152 10 6.25C10 5.91848 9.8683 5.60054 9.63388 5.36612C9.39946 5.1317 9.08152 5 8.75 5H6.25C5.91848 5 5.60054 5.1317 5.36612 5.36612C5.1317 5.60054 5 5.91848 5 6.25V23.75C5 24.0815 5.1317 24.3995 5.36612 24.6339C5.60054 24.8683 5.91848 25 6.25 25H8.75C9.08152 25 9.39946 24.8683 9.63388 24.6339C9.8683 24.3995 10 24.0815 10 23.75C10 23.4185 9.8683 23.1005 9.63388 22.8661C9.39946 22.6317 9.08152 22.5 8.75 22.5H7.5V7.5H8.75ZM26.025 14.275L22.5 9.275C22.3088 9.00552 22.0187 8.82268 21.6932 8.76646C21.3676 8.71025 21.033 8.78522 20.7625 8.975C20.6273 9.06973 20.5122 9.19031 20.4239 9.32976C20.3355 9.46921 20.2757 9.62478 20.2478 9.78748C20.2199 9.95019 20.2245 10.1168 20.2614 10.2777C20.2982 10.4386 20.3666 10.5906 20.4625 10.725L22.6125 13.75H12.5C12.1685 13.75 11.8505 13.8817 11.6161 14.1161C11.3817 14.3505 11.25 14.6685 11.25 15C11.25 15.3315 11.3817 15.6495 11.6161 15.8839C11.8505 16.1183 12.1685 16.25 12.5 16.25H22.5L20.25 19.25C20.1515 19.3813 20.0798 19.5308 20.0391 19.6898C19.9984 19.8488 19.9893 20.0143 20.0126 20.1768C20.0358 20.3393 20.0908 20.4956 20.1744 20.6369C20.258 20.7781 20.3687 20.9015 20.5 21C20.7164 21.1623 20.9795 21.25 21.25 21.25C21.4441 21.25 21.6354 21.2048 21.809 21.118C21.9826 21.0312 22.1336 20.9052 22.25 20.75L26 15.75C26.1601 15.5386 26.2488 15.2817 26.2533 15.0166C26.2578 14.7514 26.1778 14.4917 26.025 14.275Z" fill="#273757"/>
</g>
<defs>
<clipPath id="clip0_5_29">
<rect width="30" height="30" fill="white"/>
</clipPath>
</defs>
</svg>
