<svg width="18" height="18" viewBox="0 0 18 18" fill="none" xmlns="http://www.w3.org/2000/svg">
<g clip-path="url(#clip0_67_430)">
<path d="M17.4746 15.0885L13.5203 11.1341C14.2088 10.0192 14.625 8.71875 14.625 7.3125C14.625 3.27375 11.3513 0 7.3125 0C3.27375 0 0 3.27375 0 7.3125C0 11.3512 3.27375 14.625 7.3125 14.625C8.71875 14.625 10.0193 14.2087 11.133 13.5214L15.0885 17.4757C15.4068 17.7836 15.8334 17.9539 16.2762 17.9502C16.719 17.9464 17.1425 17.7688 17.4556 17.4556C17.7686 17.1424 17.946 16.7187 17.9496 16.2759C17.9532 15.8331 17.7826 15.4067 17.4746 15.0885ZM7.3125 12.375C4.51688 12.375 2.25 10.1081 2.25 7.3125C2.25 4.51687 4.51688 2.25 7.3125 2.25C10.1081 2.25 12.375 4.51687 12.375 7.3125C12.375 10.1081 10.1081 12.375 7.3125 12.375Z" fill="#9699A5"/>
</g>
<defs>
<clipPath id="clip0_67_430">
<rect width="18" height="18" fill="white"/>
</clipPath>
</defs>
</svg>
